<svg width="128" height="128" viewBox="0 0 128 128" fill="none" xmlns="http://www.w3.org/2000/svg">
  <!-- Background rounded square -->
  <rect width="128" height="128" rx="26" fill="#E6F1FB"/>

  <!-- Body mesin cuci -->
  <rect x="24" y="22" width="80" height="68" rx="10" fill="#185FA5"/>

  <!-- Panel atas -->
  <rect x="24" y="22" width="80" height="20" rx="10" fill="#0C447C"/>
  <rect x="24" y="32" width="80" height="10" fill="#0C447C"/>

  <!-- Tombol panel -->
  <circle cx="37" cy="32" r="4" fill="#378ADD"/>
  <circle cx="50" cy="32" r="4" fill="#85B7EB" opacity="0.5"/>

  <!-- Aksen express (amber) -->
  <rect x="82" y="26" width="14" height="8" rx="3" fill="#EF9F27"/>

  <!-- Drum luar -->
  <circle cx="64" cy="62" r="20" fill="#0C447C"/>

  <!-- Drum tengah -->
  <circle cx="64" cy="62" r="14" stroke="#85B7EB" stroke-width="2.5" fill="none"/>

  <!-- Drum dalam (dashed) -->
  <circle cx="64" cy="62" r="7" stroke="#B5D4F4" stroke-width="1.5" stroke-dasharray="4 2" fill="none"/>

  <!-- Titik tengah drum -->
  <circle cx="64" cy="62" r="3" fill="#85B7EB"/>

  <!-- Gelombang air bawah -->
  <path d="M28 96 Q46 88 64 94 Q82 100 100 92" stroke="#185FA5" stroke-width="3" stroke-linecap="round" fill="none"/>
  <path d="M28 104 Q46 96 64 102 Q82 108 100 100" stroke="#85B7EB" stroke-width="2" stroke-linecap="round" fill="none" opacity="0.5"/>
</svg>
